<svg width="982" height="232" viewBox="0 0 982 232" fill="none" xmlns="http://www.w3.org/2000/svg">
<g clip-path="url(#clip0_1_2)">
<rect width="982" height="232" fill="white"/>
<path d="M981.715 0H586.303V231.106H981.715V0Z" fill="#94A3B8"/>
<path d="M591.459 0H0V231.103H591.459V0Z" fill="#94A3B8"/>
<path fill-rule="evenodd" clip-rule="evenodd" d="M277.406 82.734L278.847 82.422L280.3 82.153L281.769 81.922L283.247 81.731L284.734 81.584L286.234 81.478L287.747 81.412L289.297 81.391L291.981 81.459L294.663 81.662L297.309 82L299.916 82.469L302.478 83.063L304.991 83.778L307.45 84.612L309.853 85.566L312.197 86.628L314.481 87.8L316.7 89.075L318.844 90.456L320.922 91.931L322.919 93.506L324.844 95.172L326.678 96.925L328.431 98.759L330.097 100.684L331.672 102.684L333.147 104.759L334.528 106.903L335.803 109.122L336.978 111.406L338.038 113.75L338.991 116.153L339.825 118.612L340.544 121.125L341.134 123.688L341.603 126.291L341.941 128.938L342.147 131.622L342.212 134.337L342.147 137.05L341.941 139.731L341.603 142.378L341.134 144.984L340.544 147.544L339.825 150.056L338.991 152.519L338.038 154.922L336.975 157.266L335.803 159.55L334.528 161.766L333.147 163.912L331.672 165.988L330.097 167.988L328.431 169.909L326.678 171.747L324.841 173.5L322.919 175.166L320.922 176.738L318.847 178.216L316.7 179.594L314.481 180.872L312.2 182.044L309.853 183.106L307.447 184.056L304.988 184.894L302.478 185.609L299.916 186.203L297.309 186.672L294.666 187.009L291.981 187.212L289.344 187.281L236.275 187.422V54.447H258.288V91.447L259.072 90.884L260.253 90.084L261.453 89.316L262.678 88.581L263.922 87.875L265.188 87.203L266.472 86.566L267.778 85.962L269.1 85.391L270.444 84.856L271.803 84.356L273.181 83.894L274.575 83.469L275.984 83.084L277.406 82.734ZM258.288 131.356V165.528L289.191 165.466L290.866 165.422L292.444 165.303L293.997 165.103L295.525 164.828L297.028 164.481L298.5 164.059L299.944 163.569L301.353 163.012L302.731 162.387L304.075 161.7L305.378 160.95L306.641 160.137L307.863 159.266L309.041 158.341L310.175 157.359L311.256 156.328L312.291 155.241L313.272 154.106L314.2 152.928L315.069 151.709L315.881 150.444L316.631 149.141L317.322 147.797L317.944 146.422L318.503 145.009L318.994 143.569L319.412 142.097L319.759 140.594L320.034 139.066L320.234 137.512L320.353 135.937L320.394 134.337L320.353 132.734L320.234 131.159L320.034 129.603L319.759 128.078L319.413 126.572L318.994 125.1L318.506 123.662L317.944 122.25L317.319 120.872L316.631 119.531L315.881 118.225L315.069 116.962L314.2 115.741L313.272 114.566L312.291 113.431L311.256 112.347L310.172 111.312L309.041 110.331L307.863 109.403L306.641 108.534L305.378 107.722L304.075 106.972L302.731 106.284L301.353 105.659L299.941 105.1L298.5 104.609L297.028 104.191L295.525 103.844L293.997 103.569L292.444 103.369L290.869 103.25L289.263 103.209L287.753 103.247L286.259 103.353L284.791 103.531L283.341 103.775L281.919 104.087L280.519 104.462L279.144 104.903L277.8 105.403L276.481 105.966L275.197 106.584L273.947 107.259L272.725 107.991L271.547 108.775L270.4 109.612L269.297 110.5L268.231 111.434L267.212 112.416L266.237 113.441L265.309 114.509L264.431 115.622L263.603 116.769L262.825 117.956L262.1 119.181L261.431 120.441L260.822 121.728L260.269 123.05L259.775 124.397L259.344 125.775L258.978 127.178L258.675 128.609L258.437 130.059L258.287 131.356H258.288ZM451.46 81.378L451.407 134.534L451.342 137.178L451.135 139.859L450.798 142.506L450.332 145.113L449.738 147.672L449.02 150.184L448.185 152.644L447.235 155.05L446.173 157.394L445.001 159.675L443.723 161.891L442.345 164.041L440.87 166.116L439.295 168.116L437.629 170.038L435.876 171.875L434.038 173.628L432.117 175.294L430.117 176.862L428.042 178.341L425.898 179.722L423.679 180.997L421.395 182.169L419.048 183.234L416.645 184.184L414.185 185.022L411.676 185.734L409.113 186.331L406.507 186.797L403.863 187.134L401.179 187.341L398.464 187.409L395.748 187.341L393.067 187.134L390.42 186.797L387.813 186.331L385.254 185.734L382.745 185.022L380.282 184.184L377.876 183.234L375.532 182.169L373.251 180.997L371.035 179.722L368.885 178.341L366.81 176.862L364.813 175.294L362.892 173.628L361.051 171.875L359.298 170.034L357.635 168.116L356.063 166.116L354.585 164.041L353.204 161.891L351.929 159.678L350.757 157.394L349.692 155.05L348.742 152.644L347.907 150.184L347.192 147.672L346.595 145.113L346.129 142.506L345.792 139.859L345.585 137.178L345.517 134.466L345.585 131.747L345.792 129.066L346.129 126.419L346.595 123.812L347.192 121.253L347.907 118.741L348.742 116.281L349.692 113.878L350.757 111.531L351.929 109.247L353.204 107.031L354.585 104.884L356.063 102.809L357.635 100.809L359.298 98.891L361.051 97.05L362.889 95.297L364.81 93.631L366.813 92.059L368.885 90.581L371.035 89.2L373.251 87.925L375.535 86.753L377.876 85.694L380.282 84.741L382.742 83.906L385.254 83.187L387.814 82.597L390.42 82.128L393.067 81.791L395.751 81.584L398.388 81.519L451.46 81.378ZM429.463 103.272L398.535 103.334L396.864 103.378L395.285 103.497L393.735 103.697L392.204 103.972L390.704 104.319L389.232 104.737L387.789 105.228L386.379 105.784L385.001 106.409L383.66 107.1L382.354 107.85L381.092 108.663L379.87 109.531L378.692 110.459L377.557 111.441L376.473 112.475L375.442 113.556L374.46 114.691L373.532 115.869L372.66 117.091L371.851 118.353L371.101 119.656L370.41 121L369.785 122.378L369.229 123.788L368.739 125.231L368.32 126.703L367.97 128.206L367.698 129.731L367.498 131.287L367.376 132.862L367.335 134.466L367.376 136.062L367.498 137.641L367.698 139.194L367.97 140.722L368.32 142.222L368.739 143.697L369.229 145.137L369.785 146.55L370.41 147.925L371.101 149.269L371.851 150.572L372.664 151.834L373.532 153.056L374.46 154.237L375.442 155.369L376.473 156.453L377.557 157.484L378.692 158.466L379.87 159.394L381.092 160.266L382.354 161.075L383.66 161.828L385.004 162.516L386.376 163.141L387.785 163.697L389.232 164.187L390.704 164.606L392.207 164.956L393.735 165.228L395.289 165.428L396.867 165.55L398.464 165.591L400.064 165.55L401.642 165.428L403.195 165.228L404.723 164.956L406.223 164.606L407.698 164.187L409.142 163.697L410.551 163.141L411.926 162.516L413.27 161.828L414.573 161.075L415.835 160.266L417.057 159.394L418.239 158.466L419.37 157.487L420.451 156.453L421.485 155.369L422.47 154.234L423.398 153.056L424.264 151.837L425.076 150.572L425.829 149.269L426.517 147.925L427.142 146.55L427.701 145.137L428.189 143.697L428.607 142.225L428.957 140.722L429.229 139.194L429.429 137.641L429.551 136.066L429.592 134.406L429.463 103.272ZM463.447 81.375L463.494 187.303H485.334L485.456 103.272L516.378 103.334L517.85 103.366L519.238 103.459L520.609 103.612L521.963 103.825L523.294 104.097L524.603 104.422L525.891 104.803L527.156 105.241L528.4 105.728L529.612 106.266L530.797 106.856L531.956 107.497L533.088 108.181L534.181 108.912L535.247 109.687L536.278 110.509L537.275 111.372L538.231 112.275L539.15 113.212L540.028 114.194L540.869 115.209L541.663 116.259L542.413 117.341L543.119 118.456L543.778 119.606L544.388 120.778L544.95 121.981L545.459 123.209L545.919 124.462L546.322 125.741L546.672 127.044L547.941 132.762H569.884L568.369 124.109L567.85 121.778L567.228 119.487L566.506 117.241L565.691 115.037L564.778 112.881L563.778 110.772L562.688 108.722L561.516 106.722L560.253 104.781L558.916 102.9L557.494 101.078L556 99.325L554.431 97.634L552.794 96.016L551.084 94.472L549.316 92.997L547.475 91.6L545.575 90.281L543.616 89.047L541.603 87.894L539.531 86.828L537.413 85.853L535.241 84.972L533.028 84.181L530.766 83.487L528.466 82.897L526.125 82.406L523.753 82.019L521.344 81.741L518.906 81.572L516.509 81.519L463.447 81.375ZM223.588 54.2L136.688 54.244L136.684 76.053L169.075 76.187V76.247H223.588V54.2ZM182.209 186.066L180.772 186.375L179.319 186.644L177.853 186.875L176.375 187.066L174.884 187.216L173.381 187.322L171.872 187.387L170.319 187.409L167.634 187.341L164.953 187.134L162.309 186.797L159.7 186.331L157.141 185.734L154.628 185.022L152.169 184.184L149.763 183.234L147.419 182.169L145.134 180.997L142.919 179.722L140.769 178.341L138.697 176.862L136.697 175.294L134.778 173.628L132.938 171.875L131.184 170.034L129.519 168.116L128.381 166.669L127.241 168.116L125.578 170.037L123.822 171.875L121.988 173.628L120.066 175.294L118.066 176.862L115.991 178.341L113.844 179.722L111.625 180.997L109.344 182.169L106.997 183.234L104.594 184.184L102.134 185.022L99.622 185.734L97.063 186.331L94.456 186.797L91.809 187.134L89.128 187.341L86.409 187.409L83.697 187.341L81.013 187.134L78.369 186.797L75.763 186.331L73.203 185.734L70.691 185.022L68.231 184.184L65.825 183.234L63.481 182.169L61.197 180.997L58.984 179.722L56.834 178.341L54.759 176.862L52.759 175.294L50.841 173.628L49 171.875L47.247 170.034L45.581 168.116L44.013 166.116L42.531 164.041L41.153 161.891L39.878 159.678L38.706 157.394L37.641 155.05L36.691 152.644L35.853 150.184L35.141 147.672L34.544 145.113L34.078 142.506L33.738 139.859L33.534 137.178L33.466 134.537L33.416 54.672L55.469 54.731V81.425L115.947 81.391V103.434H69.381V103.378L55.409 103.319L55.281 134.406L55.325 136.062L55.447 137.641L55.644 139.194L55.919 140.722L56.269 142.222L56.688 143.697L57.178 145.137L57.734 146.55L58.359 147.925L59.047 149.269L59.8 150.572L60.613 151.834L61.481 153.056L62.409 154.237L63.391 155.369L64.422 156.453L65.506 157.484L66.638 158.466L67.819 159.394L69.038 160.266L70.303 161.075L71.609 161.828L72.95 162.516L74.325 163.141L75.734 163.697L77.181 164.187L78.653 164.606L80.153 164.956L81.681 165.228L83.234 165.428L84.813 165.55L86.409 165.591L88.009 165.55L89.588 165.428L91.144 165.228L92.669 164.956L94.172 164.606L95.644 164.187L97.088 163.697L98.497 163.141L99.875 162.516L101.219 161.825L102.522 161.075L103.784 160.266L105.006 159.394L106.184 158.466L107.319 157.487L108.4 156.453L109.434 155.369L110.419 154.234L111.344 153.056L112.213 151.837L113.025 150.572L113.775 149.269L114.466 147.925L115.091 146.55L115.647 145.137L116.138 143.697L116.556 142.225L116.903 140.722L117.178 139.194L117.378 137.641L117.456 136.609L117.403 134.466L117.472 131.747L117.675 129.066L117.838 127.812C117.847 127.6 117.859 127.384 117.872 127.169H117.919L118.013 126.419L118.481 123.812L119.078 121.253L119.791 118.741L120.628 116.281L121.578 113.878L122.641 111.531L123.813 109.247L125.091 107.031L126.469 104.884L127.95 102.809L129.519 100.809L131.184 98.891L132.938 97.05L134.775 95.297L136.697 93.631L138.697 92.059L140.772 90.581L142.919 89.2L145.138 87.925L147.419 86.753L149.763 85.694L152.169 84.741L154.628 83.906L157.141 83.187L159.7 82.597L162.309 82.128L164.953 81.791L167.638 81.584L170.272 81.519L223.341 81.378V187.166H201.325V177.353L200.544 177.916L199.366 178.712L198.166 179.481L196.944 180.216L195.697 180.922L194.431 181.594L193.144 182.234L191.838 182.837L190.516 183.406L189.175 183.941L187.816 184.441L186.438 184.9L185.044 185.328L183.634 185.712L182.209 186.066ZM139.303 136.606L139.356 134.531V134.206L139.353 133.941L139.35 133.681L139.344 133.434L139.341 133.175L139.331 132.912L139.322 132.656L139.306 132.281L139.384 131.287L139.581 129.731L139.856 128.206L140.206 126.703L140.625 125.231L141.116 123.787L141.672 122.378L142.297 121L142.984 119.656L143.738 118.353L144.547 117.091L145.419 115.869L146.347 114.691L147.325 113.556L148.359 112.475L149.444 111.441L150.578 110.459L151.756 109.531L152.975 108.662L154.241 107.85L155.547 107.1L156.888 106.409L158.263 105.784L159.675 105.228L161.116 104.737L162.588 104.319L164.091 103.972L165.619 103.697L167.172 103.497L168.747 103.378L170.422 103.334L201.325 103.272V137.447L201.178 138.741L200.944 140.191L200.641 141.619L200.272 143.025L199.844 144.4L199.35 145.747L198.797 147.069L198.184 148.362L197.519 149.619L196.794 150.841L196.019 152.028L195.188 153.178L194.309 154.287L193.381 155.359L192.406 156.384L191.384 157.366L190.322 158.3L189.219 159.184L188.072 160.022L186.888 160.809L185.672 161.537L184.419 162.216L183.134 162.834L181.816 163.397L180.472 163.897L179.1 164.334L177.7 164.712L176.272 165.025L174.825 165.269L173.353 165.447L171.863 165.553L170.353 165.591L168.75 165.55L167.175 165.428L165.619 165.228L164.091 164.956L162.591 164.606L161.119 164.187L159.672 163.697L158.263 163.141L156.888 162.516L155.547 161.828L154.241 161.075L152.975 160.266L151.756 159.394L150.575 158.466L149.444 157.484L148.359 156.453L147.328 155.369L146.347 154.237L145.419 153.056L144.55 151.834L143.738 150.572L142.984 149.269L142.297 147.925L141.672 146.55L141.116 145.137L140.625 143.697L140.206 142.222L139.856 140.722L139.581 139.194L139.384 137.641L139.303 136.606Z" fill="white"/>
<path fill-rule="evenodd" clip-rule="evenodd" d="M713.478 149.691L715.05 150.684L716.591 151.728L718.091 152.812L719.559 153.941L720.994 155.116L722.394 156.331L723.753 157.584L725.075 158.881L726.356 160.219L727.6 161.591L728.8 163.003L729.956 164.45L731.069 165.931L732.144 167.447L733.169 168.997L733.372 169.328L733.578 168.997L734.603 167.45L735.672 165.931L736.787 164.447L737.947 163L739.147 161.591L740.384 160.219L741.669 158.881L742.994 157.584L744.353 156.331L745.75 155.116L747.184 153.941L748.656 152.812L750.159 151.728L751.697 150.687L753.266 149.691L754.869 148.741L756.503 147.841L758.166 146.987L759.859 146.184L761.578 145.434L763.328 144.737L765.097 144.091L766.894 143.497L768.719 142.959L770.562 142.478L772.425 142.053L774.316 141.684L775.431 141.506L775.278 139.825L774.984 137.747L774.591 135.703L774.094 133.694L773.509 131.722L772.828 129.791L772.059 127.906L771.2 126.066L770.256 124.275L769.234 122.534L768.128 120.847L766.947 119.216L765.691 117.647L764.366 116.137L762.969 114.694L761.503 113.316L759.978 112.009L758.387 110.775L756.741 109.616L755.038 108.534L753.284 107.531L751.478 106.616L749.625 105.784L747.725 105.041L745.784 104.387L743.8 103.828L741.781 103.366L739.725 102.997L737.641 102.734L735.519 102.575L733.375 102.522L731.225 102.575L729.106 102.734L727.019 102.997L724.966 103.366L722.944 103.828L720.963 104.387L719.022 105.041L717.125 105.784L715.269 106.616L713.466 107.531L711.709 108.534L710.009 109.616L708.359 110.775L706.772 112.009L705.247 113.316L703.784 114.694L702.384 116.137L701.056 117.65L699.803 119.216L698.622 120.847L697.516 122.534L696.491 124.275L695.55 126.066L694.691 127.906L693.922 129.794L693.241 131.722L692.653 133.691L692.163 135.703L691.766 137.747L691.472 139.825L691.319 141.506L692.434 141.684L694.319 142.053L696.188 142.478L698.028 142.959L699.853 143.497L701.65 144.091L703.422 144.737L705.169 145.434L706.888 146.184L708.581 146.987L710.244 147.841L711.875 148.741L713.478 149.691ZM785.038 26.581L788.147 26.659L791.219 26.894L794.244 27.278L797.228 27.809L800.156 28.481L803.034 29.294L805.853 30.247L808.606 31.328L811.294 32.534L813.912 33.869L816.453 35.322L818.919 36.894L821.303 38.575L823.603 40.366L825.812 42.259L827.928 44.259L829.947 46.353L831.866 48.541L833.681 50.819L835.391 53.184L836.984 55.631L838.466 58.159L839.825 60.756L841.066 63.431L842.175 66.169L843.156 68.975L844 71.834L844.709 74.756L845.275 77.728L845.694 80.747L845.962 83.806L845.984 84.381L846.294 84.422L849.069 84.931L851.797 85.559L854.478 86.312L857.109 87.181L859.684 88.169L862.206 89.262L864.666 90.472L867.059 91.781L869.387 93.194L871.65 94.703L873.837 96.312L875.95 98.012L877.984 99.806L879.937 101.684L881.809 103.647L883.587 105.687L885.281 107.809L886.875 110.006L888.378 112.272L889.778 114.609L891.078 117.016L892.272 119.481L893.356 122.006L894.328 124.587L895.184 127.222L895.925 129.906L896.544 132.644L897.037 135.422L897.403 138.237L897.637 141.094L897.65 141.456L897.975 141.5L900.762 142.012L903.506 142.647L906.203 143.409L908.847 144.287L911.434 145.284L913.966 146.387L916.441 147.606L918.844 148.928L921.184 150.356L923.453 151.884L925.65 153.506L927.769 155.225L929.809 157.034L931.766 158.931L933.641 160.912L935.422 162.975L937.112 165.116L938.709 167.331L940.209 169.622L941.606 171.975L942.9 174.403L944.087 176.891L945.166 179.441L946.125 182.044L946.972 184.7L947.697 187.409L948.3 190.169L948.775 192.966L949.122 195.806L949.334 198.684L949.494 204.522H930.644L930.487 199.456L930.319 197.328L930.041 195.228L929.662 193.162L929.184 191.131L928.609 189.144L927.941 187.191L927.181 185.287L926.331 183.425L925.394 181.616L924.375 179.853L923.275 178.15L922.094 176.5L920.841 174.912L919.509 173.387L918.112 171.925L916.644 170.531L915.116 169.209L913.519 167.956L911.866 166.784L910.156 165.687L908.394 164.678L906.578 163.747L904.716 162.906L902.803 162.15L900.85 161.491L898.856 160.922L896.825 160.453L894.756 160.084L892.656 159.819L890.522 159.656L888.362 159.6L886.197 159.656L884.066 159.819L881.966 160.084L879.897 160.453L877.866 160.922L875.872 161.491L873.919 162.15L872.009 162.906L870.147 163.747L868.331 164.678L866.569 165.687L864.859 166.784L863.203 167.956L861.609 169.209L860.081 170.531L858.612 171.925L857.212 173.387L855.884 174.912L854.628 176.5L853.45 178.15L852.347 179.856L851.328 181.616L850.391 183.425L849.544 185.287L848.781 187.194L848.112 189.144L847.537 191.131L847.059 193.162L846.681 195.228L846.406 197.325L846.234 199.456L846.087 204.522H827.312L827.159 199.456L826.987 197.325L826.712 195.228L826.334 193.162L825.856 191.131L825.281 189.144L824.612 187.191L823.853 185.287L823.003 183.425L822.066 181.616L821.044 179.853L819.947 178.15L818.766 176.5L817.512 174.912L816.184 173.387L814.787 171.925L813.319 170.531L811.787 169.209L810.191 167.956L808.541 166.784L806.831 165.687L805.066 164.678L803.253 163.747L801.391 162.906L799.478 162.15L797.525 161.491L795.531 160.922L793.5 160.453L791.431 160.084L789.331 159.819L787.2 159.656L785.037 159.6L782.875 159.656L780.741 159.819L778.641 160.084L776.575 160.453L774.537 160.922L772.547 161.491L770.594 162.15L768.684 162.906L766.822 163.747L765.006 164.678L763.244 165.687L761.534 166.784L759.878 167.956L758.287 169.209L756.756 170.531L755.291 171.925L753.887 173.387L752.562 174.913L751.306 176.5L750.128 178.15L749.025 179.856L748.003 181.616L747.069 183.425L746.222 185.288L745.459 187.194L744.791 189.144L744.216 191.131L743.737 193.163L743.359 195.228L743.084 197.325L742.912 199.456L742.769 204.522H723.994L723.837 199.456L723.669 197.325L723.394 195.228L723.012 193.163L722.534 191.131L721.959 189.144L721.291 187.191L720.531 185.288L719.681 183.425L718.744 181.616L717.722 179.853L716.625 178.15L715.444 176.5L714.187 174.913L712.859 173.387L711.462 171.925L709.994 170.531L708.462 169.209L706.869 167.956L705.216 166.784L703.506 165.687L701.741 164.678L699.928 163.747L698.063 162.906L696.153 162.15L694.2 161.491L692.206 160.922L690.178 160.453L688.109 160.084L686.009 159.819L683.875 159.656L681.716 159.6L679.553 159.656L677.419 159.819L675.316 160.084L673.25 160.453L671.219 160.922L669.225 161.491L667.272 162.15L665.362 162.906L663.497 163.747L661.681 164.678L659.919 165.687L658.209 166.784L656.556 167.956L654.962 169.209L653.431 170.531L651.966 171.925L650.562 173.387L649.234 174.913L647.978 176.5L646.797 178.15L645.697 179.856L644.675 181.616L643.741 183.425L642.894 185.288L642.128 187.194L641.462 189.144L640.888 191.131L640.409 193.163L640.031 195.228L639.756 197.325L639.584 199.456L639.438 204.522H620.587L620.741 198.687L620.953 195.809L621.297 192.966L621.775 190.169L622.375 187.409L623.1 184.7L623.947 182.044L624.909 179.441L625.984 176.891L627.172 174.403L628.466 171.975L629.862 169.622L631.359 167.331L632.959 165.112L634.65 162.972L636.434 160.913L638.303 158.931L640.263 157.034L642.303 155.225L644.425 153.506L646.619 151.884L648.888 150.356L651.228 148.928L653.634 147.606L656.103 146.387L658.638 145.284L661.228 144.288L663.872 143.409L666.566 142.647L669.309 142.012L672.1 141.5L672.422 141.456L672.434 141.094L672.672 138.241L673.034 135.422L673.531 132.644L674.147 129.909L674.888 127.222L675.744 124.584L676.719 122.006L677.8 119.481L678.994 117.013L680.294 114.609L681.697 112.272L683.197 110.006L684.797 107.809L686.488 105.687L688.269 103.647L690.134 101.684L692.091 99.806L694.122 98.013L696.238 96.316L698.422 94.703L700.684 93.194L703.013 91.781L705.409 90.472L707.866 89.266L710.388 88.169L712.963 87.181L715.594 86.312L718.275 85.559L721.003 84.931L723.778 84.422L724.091 84.381L724.113 83.809L724.381 80.747L724.797 77.728L725.363 74.756L726.072 71.834L726.916 68.972L727.897 66.169L729.009 63.431L730.244 60.759L731.606 58.159L733.084 55.631L734.684 53.184L736.388 50.819L738.206 48.541L740.125 46.35L742.147 44.259L744.259 42.263L746.469 40.366L748.766 38.575L751.15 36.894L753.616 35.322L756.159 33.869L758.778 32.534L761.469 31.328L764.222 30.247L767.038 29.294L769.913 28.481L772.847 27.809L775.828 27.278L778.856 26.894L781.928 26.659L785.038 26.581ZM816.025 59.059L814.631 57.616L813.166 56.238L811.637 54.931L810.047 53.694L808.403 52.534L806.7 51.453L804.944 50.453L803.141 49.534L801.288 48.706L799.387 47.959L797.444 47.306L795.462 46.747L793.444 46.284L791.391 45.916L789.303 45.653L787.184 45.494L785.037 45.441L782.891 45.494L780.772 45.653L778.684 45.916L776.631 46.284L774.609 46.747L772.628 47.306L770.688 47.959L768.788 48.706L766.931 49.538L765.128 50.453L763.372 51.453L761.672 52.534L760.022 53.694L758.434 54.928L756.906 56.238L755.444 57.616L754.044 59.059L752.719 60.569L751.463 62.138L750.281 63.769L749.175 65.456L748.153 67.197L747.209 68.987L746.353 70.831L745.581 72.716L744.903 74.647L744.313 76.616L743.822 78.625L743.425 80.669L743.131 82.75L742.978 84.431L744.097 84.612L745.984 84.978L747.85 85.403L749.694 85.884L751.519 86.425L753.316 87.016L755.087 87.663L756.834 88.362L758.553 89.112L760.247 89.912L761.909 90.766L763.541 91.666L765.144 92.616L766.713 93.609L768.256 94.653L769.756 95.737L771.225 96.866L772.659 98.041L774.059 99.256L775.416 100.509L776.741 101.809L778.019 103.144L779.263 104.516L780.463 105.925L781.622 107.375L782.734 108.853L783.806 110.372L784.831 111.922L785.034 112.25L785.238 111.922L786.263 110.372L787.331 108.853L788.447 107.372L789.606 105.925L790.806 104.516L792.047 103.144L793.328 101.809L794.65 100.509L796.009 99.256L797.406 98.041L798.844 96.866L800.316 95.737L801.819 94.653L803.353 93.612L804.925 92.616L806.528 91.666L808.163 90.766L809.825 89.912L811.519 89.112L813.238 88.362L814.984 87.663L816.756 87.016L818.556 86.425L820.378 85.884L822.222 85.403L824.088 84.978L825.978 84.612L827.094 84.431L826.941 82.75L826.647 80.669L826.253 78.625L825.759 76.616L825.172 74.644L824.491 72.713L823.722 70.831L822.863 68.987L821.922 67.197L820.897 65.456L819.794 63.769L818.609 62.137L817.353 60.569L816.025 59.059ZM816.803 149.691L818.375 150.684L819.913 151.728L821.416 152.812L822.884 153.941L824.319 155.116L825.719 156.331L827.078 157.584L828.4 158.881L829.681 160.219L830.922 161.591L832.122 163.003L833.281 164.45L834.394 165.931L835.466 167.447L836.491 168.997L836.697 169.328L836.9 168.997L837.928 167.447L838.997 165.931L840.113 164.447L841.272 163L842.472 161.591L843.709 160.219L844.994 158.881L846.319 157.584L847.678 156.331L849.075 155.116L850.509 153.941L851.981 152.812L853.484 151.728L855.022 150.687L856.591 149.691L858.194 148.741L859.828 147.841L861.491 146.987L863.184 146.184L864.903 145.434L866.653 144.738L868.422 144.091L870.222 143.497L872.044 142.959L873.888 142.478L875.75 142.053L877.641 141.684L878.756 141.506L878.603 139.825L878.306 137.747L877.913 135.703L877.419 133.694L876.831 131.722L876.15 129.794L875.381 127.906L874.525 126.066L873.581 124.275L872.556 122.534L871.453 120.847L870.272 119.216L869.016 117.647L867.688 116.138L866.291 114.694L864.828 113.316L863.3 112.009L861.709 110.775L860.066 109.616L858.363 108.534L856.606 107.531L854.803 106.616L852.95 105.784L851.05 105.041L849.109 104.388L847.125 103.828L845.109 103.366L843.053 102.997L840.966 102.734L838.85 102.575L836.703 102.522L834.553 102.575L832.434 102.734L830.347 102.997L828.294 103.366L826.269 103.828L824.291 104.388L822.347 105.041L820.45 105.784L818.594 106.616L816.791 107.531L815.034 108.534L813.331 109.616L811.684 110.775L810.097 112.009L808.569 113.316L807.106 114.694L805.706 116.138L804.381 117.647L803.125 119.216L801.944 120.847L800.838 122.534L799.816 124.275L798.872 126.066L798.016 127.906L797.244 129.794L796.562 131.722L795.978 133.691L795.484 135.703L795.091 137.747L794.797 139.825L794.644 141.506L795.759 141.684L797.644 142.053L799.509 142.478L801.353 142.959L803.178 143.497L804.975 144.091L806.747 144.738L808.491 145.434L810.212 146.184L811.906 146.987L813.569 147.841L815.2 148.741L816.803 149.691Z" fill="white"/>
</g>
<defs>
<clipPath id="clip0_1_2">
<rect width="982" height="232" fill="white"/>
</clipPath>
</defs>
</svg>
