<?xml version="1.0" encoding="UTF-8" standalone="no"?><!DOCTYPE svg PUBLIC "-//W3C//DTD SVG 1.1//EN" "http://www.w3.org/Graphics/SVG/1.1/DTD/svg11.dtd"><svg width="100%" height="100%" viewBox="0 0 982 232" version="1.1" xmlns="http://www.w3.org/2000/svg" xmlns:xlink="http://www.w3.org/1999/xlink" xml:space="preserve" style="fill-rule:evenodd;clip-rule:evenodd;stroke-linejoin:round;stroke-miterlimit:1.41421;"><rect x="586.303" y="0" width="395.412" height="231.106" style="fill:#231f20;fill-rule:nonzero;"/><rect x="0" y="0" width="591.459" height="231.103" style="fill:#d71920;fill-rule:nonzero;"/><path d="M277.406,82.734l1.441,-0.312l1.453,-0.269l1.469,-0.231l1.478,-0.191l1.487,-0.147l1.5,-0.106l1.513,-0.066l1.55,-0.021l2.684,0.068l2.682,0.203l2.646,0.338l2.607,0.469l2.562,0.594l2.513,0.715l2.459,0.834l2.403,0.954l2.344,1.062l2.284,1.172l2.219,1.275l2.144,1.381l2.078,1.475l1.997,1.575l1.925,1.666l1.834,1.753l1.753,1.834l1.666,1.925l1.575,2l1.475,2.075l1.381,2.144l1.275,2.219l1.175,2.284l1.06,2.344l0.953,2.403l0.834,2.459l0.719,2.513l0.59,2.563l0.469,2.603l0.338,2.647l0.206,2.684l0.065,2.715l-0.065,2.713l-0.206,2.681l-0.338,2.647l-0.469,2.606l-0.59,2.56l-0.719,2.512l-0.834,2.463l-0.953,2.403l-1.063,2.344l-1.172,2.284l-1.275,2.216l-1.381,2.146l-1.475,2.076l-1.575,2l-1.666,1.921l-1.753,1.838l-1.837,1.753l-1.922,1.666l-1.997,1.572l-2.075,1.478l-2.147,1.378l-2.219,1.278l-2.281,1.172l-2.347,1.062l-2.406,0.95l-2.459,0.838l-2.51,0.715l-2.562,0.594l-2.607,0.469l-2.643,0.337l-2.685,0.203l-2.637,0.069l-53.069,0.141l0,-132.975l22.013,0l0,37l0.784,-0.563l1.181,-0.8l1.2,-0.768l1.225,-0.735l1.244,-0.706l1.266,-0.672l1.284,-0.637l1.306,-0.604l1.322,-0.571l1.344,-0.535l1.359,-0.5l1.378,-0.462l1.394,-0.425l1.409,-0.385l1.422,-0.35Zm-19.118,48.622l0,34.172l30.903,-0.062l1.675,-0.044l1.578,-0.119l1.553,-0.2l1.528,-0.275l1.503,-0.347l1.472,-0.422l1.444,-0.49l1.409,-0.557l1.378,-0.625l1.344,-0.687l1.303,-0.75l1.263,-0.813l1.222,-0.871l1.178,-0.925l1.134,-0.982l1.081,-1.031l1.035,-1.087l0.981,-1.135l0.928,-1.178l0.869,-1.219l0.812,-1.265l0.75,-1.303l0.691,-1.344l0.622,-1.375l0.559,-1.413l0.491,-1.44l0.418,-1.472l0.347,-1.503l0.275,-1.528l0.2,-1.554l0.119,-1.575l0.041,-1.6l-0.041,-1.603l-0.119,-1.575l-0.2,-1.556l-0.275,-1.525l-0.346,-1.506l-0.419,-1.472l-0.488,-1.438l-0.562,-1.412l-0.625,-1.378l-0.688,-1.341l-0.75,-1.306l-0.812,-1.263l-0.869,-1.221l-0.928,-1.175l-0.981,-1.135l-1.035,-1.084l-1.084,-1.035l-1.131,-0.981l-1.178,-0.928l-1.222,-0.869l-1.263,-0.812l-1.303,-0.75l-1.344,-0.688l-1.378,-0.625l-1.412,-0.559l-1.441,-0.491l-1.472,-0.418l-1.503,-0.347l-1.528,-0.275l-1.553,-0.2l-1.575,-0.119l-1.606,-0.041l-1.51,0.038l-1.494,0.106l-1.468,0.178l-1.45,0.244l-1.422,0.312l-1.4,0.375l-1.375,0.441l-1.344,0.5l-1.319,0.563l-1.284,0.618l-1.25,0.675l-1.222,0.732l-1.178,0.784l-1.147,0.837l-1.103,0.888l-1.066,0.934l-1.019,0.982l-0.975,1.025l-0.928,1.068l-0.878,1.113l-0.828,1.147l-0.778,1.187l-0.725,1.225l-0.669,1.26l-0.609,1.287l-0.553,1.322l-0.494,1.347l-0.431,1.378l-0.366,1.403l-0.303,1.431l-0.238,1.45l-0.15,1.297Zm193.172,-49.978l-0.053,53.156l-0.065,2.644l-0.207,2.681l-0.337,2.647l-0.466,2.607l-0.594,2.559l-0.718,2.512l-0.835,2.46l-0.95,2.406l-1.062,2.344l-1.172,2.281l-1.278,2.216l-1.378,2.15l-1.475,2.075l-1.575,2l-1.666,1.922l-1.753,1.837l-1.838,1.753l-1.921,1.666l-2,1.568l-2.075,1.479l-2.144,1.381l-2.219,1.275l-2.284,1.172l-2.347,1.065l-2.403,0.95l-2.46,0.838l-2.509,0.712l-2.563,0.597l-2.606,0.466l-2.644,0.337l-2.684,0.207l-2.715,0.068l-2.716,-0.068l-2.681,-0.207l-2.647,-0.337l-2.607,-0.466l-2.559,-0.597l-2.509,-0.712l-2.463,-0.838l-2.406,-0.95l-2.344,-1.065l-2.281,-1.172l-2.216,-1.275l-2.15,-1.381l-2.075,-1.479l-1.997,-1.568l-1.921,-1.666l-1.841,-1.753l-1.753,-1.841l-1.663,-1.918l-1.572,-2l-1.478,-2.075l-1.381,-2.15l-1.275,-2.213l-1.172,-2.284l-1.065,-2.344l-0.95,-2.406l-0.835,-2.46l-0.715,-2.512l-0.597,-2.559l-0.466,-2.607l-0.337,-2.647l-0.207,-2.681l-0.068,-2.712l0.068,-2.719l0.207,-2.681l0.337,-2.647l0.466,-2.607l0.597,-2.559l0.715,-2.512l0.835,-2.46l0.95,-2.403l1.065,-2.347l1.172,-2.284l1.275,-2.216l1.381,-2.147l1.478,-2.075l1.572,-2l1.663,-1.918l1.753,-1.841l1.838,-1.753l1.921,-1.666l2.003,-1.572l2.072,-1.478l2.15,-1.381l2.216,-1.275l2.284,-1.172l2.341,-1.059l2.406,-0.953l2.46,-0.835l2.512,-0.719l2.56,-0.59l2.606,-0.469l2.647,-0.337l2.684,-0.207l2.637,-0.065l53.072,-0.141Zm-21.997,21.894l-30.928,0.062l-1.671,0.044l-1.579,0.119l-1.55,0.2l-1.531,0.275l-1.5,0.347l-1.472,0.418l-1.443,0.491l-1.41,0.556l-1.378,0.625l-1.341,0.691l-1.306,0.75l-1.262,0.813l-1.222,0.868l-1.178,0.928l-1.135,0.982l-1.084,1.034l-1.031,1.081l-0.982,1.135l-0.928,1.178l-0.872,1.222l-0.809,1.262l-0.75,1.303l-0.691,1.344l-0.625,1.378l-0.556,1.41l-0.49,1.443l-0.419,1.472l-0.35,1.503l-0.272,1.525l-0.2,1.556l-0.122,1.575l-0.041,1.604l0.041,1.596l0.122,1.579l0.2,1.553l0.272,1.528l0.35,1.5l0.419,1.475l0.49,1.44l0.556,1.413l0.625,1.375l0.691,1.344l0.75,1.303l0.813,1.262l0.868,1.222l0.928,1.181l0.982,1.132l1.031,1.084l1.084,1.031l1.135,0.982l1.178,0.928l1.222,0.872l1.262,0.809l1.306,0.753l1.344,0.688l1.372,0.625l1.409,0.556l1.447,0.49l1.472,0.419l1.503,0.35l1.528,0.272l1.554,0.2l1.578,0.122l1.597,0.041l1.6,-0.041l1.578,-0.122l1.553,-0.2l1.528,-0.272l1.5,-0.35l1.475,-0.419l1.444,-0.49l1.409,-0.556l1.375,-0.625l1.344,-0.688l1.303,-0.753l1.262,-0.809l1.222,-0.872l1.182,-0.928l1.131,-0.979l1.081,-1.034l1.034,-1.084l0.985,-1.135l0.928,-1.178l0.866,-1.219l0.812,-1.265l0.753,-1.303l0.688,-1.344l0.625,-1.375l0.559,-1.413l0.488,-1.44l0.418,-1.472l0.35,-1.503l0.272,-1.528l0.2,-1.553l0.122,-1.575l0.041,-1.66l-0.128,-31.134Zm33.984,-21.897l0.047,105.928l21.84,0l0.122,-84.031l30.922,0.062l1.472,0.032l1.388,0.093l1.371,0.153l1.354,0.213l1.331,0.272l1.309,0.325l1.288,0.381l1.265,0.438l1.244,0.487l1.212,0.538l1.185,0.59l1.159,0.641l1.132,0.684l1.093,0.731l1.066,0.775l1.031,0.822l0.997,0.863l0.956,0.903l0.919,0.937l0.878,0.982l0.841,1.015l0.794,1.05l0.75,1.082l0.706,1.115l0.659,1.15l0.61,1.172l0.562,1.203l0.509,1.228l0.46,1.253l0.403,1.279l0.35,1.303l1.269,5.718l21.943,0l-1.515,-8.653l-0.519,-2.331l-0.622,-2.291l-0.722,-2.246l-0.815,-2.204l-0.913,-2.156l-1,-2.109l-1.09,-2.05l-1.172,-2l-1.263,-1.941l-1.337,-1.881l-1.422,-1.822l-1.494,-1.753l-1.569,-1.691l-1.637,-1.618l-1.71,-1.544l-1.768,-1.475l-1.841,-1.397l-1.9,-1.319l-1.959,-1.234l-2.013,-1.153l-2.072,-1.066l-2.118,-0.975l-2.172,-0.881l-2.213,-0.791l-2.262,-0.694l-2.3,-0.59l-2.341,-0.491l-2.372,-0.387l-2.409,-0.278l-2.438,-0.169l-2.397,-0.053l-53.062,-0.144Zm-239.859,-27.175l-86.9,0.044l-0.004,21.809l32.391,0.134l0,0.06l54.513,0l0,-22.047Zm-41.379,131.866l-1.437,0.309l-1.453,0.269l-1.466,0.231l-1.478,0.191l-1.491,0.15l-1.503,0.106l-1.509,0.065l-1.553,0.022l-2.685,-0.068l-2.681,-0.207l-2.644,-0.337l-2.609,-0.466l-2.559,-0.597l-2.513,-0.712l-2.459,-0.838l-2.406,-0.95l-2.344,-1.065l-2.285,-1.172l-2.215,-1.275l-2.15,-1.381l-2.072,-1.479l-2,-1.568l-1.919,-1.666l-1.84,-1.753l-1.754,-1.841l-1.665,-1.918l-1.138,-1.447l-1.14,1.447l-1.663,1.921l-1.756,1.838l-1.834,1.753l-1.922,1.666l-2,1.568l-2.075,1.479l-2.147,1.381l-2.219,1.275l-2.281,1.172l-2.347,1.065l-2.403,0.95l-2.46,0.838l-2.512,0.712l-2.559,0.597l-2.607,0.466l-2.647,0.337l-2.681,0.207l-2.719,0.068l-2.712,-0.068l-2.684,-0.207l-2.644,-0.337l-2.606,-0.466l-2.56,-0.597l-2.512,-0.712l-2.46,-0.838l-2.406,-0.95l-2.344,-1.065l-2.284,-1.172l-2.213,-1.275l-2.15,-1.381l-2.075,-1.479l-2,-1.568l-1.918,-1.666l-1.841,-1.753l-1.753,-1.841l-1.666,-1.918l-1.568,-2l-1.482,-2.075l-1.378,-2.15l-1.275,-2.213l-1.172,-2.284l-1.065,-2.344l-0.95,-2.406l-0.838,-2.46l-0.712,-2.512l-0.597,-2.559l-0.466,-2.607l-0.34,-2.647l-0.204,-2.681l-0.068,-2.641l-0.05,-79.865l22.053,0.059l0,26.694l60.478,-0.034l0,22.043l-46.566,0l0,-0.056l-13.972,-0.059l-0.128,31.087l0.044,1.656l0.122,1.579l0.197,1.553l0.275,1.528l0.35,1.5l0.419,1.475l0.49,1.44l0.556,1.413l0.625,1.375l0.688,1.344l0.753,1.303l0.813,1.262l0.868,1.222l0.928,1.181l0.982,1.132l1.031,1.084l1.084,1.031l1.132,0.982l1.181,0.928l1.219,0.872l1.265,0.809l1.306,0.753l1.341,0.688l1.375,0.625l1.409,0.556l1.447,0.49l1.472,0.419l1.5,0.35l1.528,0.272l1.553,0.2l1.579,0.122l1.596,0.041l1.6,-0.041l1.579,-0.122l1.556,-0.2l1.525,-0.272l1.503,-0.35l1.472,-0.419l1.444,-0.49l1.409,-0.556l1.378,-0.625l1.344,-0.691l1.303,-0.75l1.262,-0.809l1.222,-0.872l1.178,-0.928l1.135,-0.979l1.081,-1.034l1.034,-1.084l0.985,-1.135l0.925,-1.178l0.869,-1.219l0.812,-1.265l0.75,-1.303l0.691,-1.344l0.625,-1.375l0.556,-1.413l0.491,-1.44l0.418,-1.472l0.347,-1.503l0.275,-1.528l0.2,-1.553l0.078,-1.032l-0.053,-2.143l0.069,-2.719l0.203,-2.681l0.163,-1.254c0.009,-0.212 0.021,-0.428 0.034,-0.643l0.047,0l0.094,-0.75l0.468,-2.607l0.597,-2.559l0.713,-2.512l0.837,-2.46l0.95,-2.403l1.063,-2.347l1.172,-2.284l1.278,-2.216l1.378,-2.147l1.481,-2.075l1.569,-2l1.665,-1.918l1.754,-1.841l1.837,-1.753l1.922,-1.666l2,-1.572l2.075,-1.478l2.147,-1.381l2.219,-1.275l2.281,-1.172l2.344,-1.059l2.406,-0.953l2.459,-0.835l2.513,-0.719l2.559,-0.59l2.609,-0.469l2.644,-0.337l2.685,-0.207l2.634,-0.065l53.069,-0.141l0,105.788l-22.016,0l0,-9.813l-0.781,0.563l-1.178,0.796l-1.2,0.769l-1.222,0.735l-1.247,0.706l-1.266,0.672l-1.287,0.64l-1.306,0.603l-1.322,0.569l-1.341,0.535l-1.359,0.5l-1.378,0.459l-1.394,0.428l-1.41,0.384l-1.425,0.354Zm-42.906,-49.46l0.053,-2.075l0,-0.325l-0.003,-0.265l-0.003,-0.26l-0.006,-0.247l-0.003,-0.259l-0.01,-0.263l-0.009,-0.256l-0.016,-0.375l0.078,-0.994l0.197,-1.556l0.275,-1.525l0.35,-1.503l0.419,-1.472l0.491,-1.444l0.556,-1.409l0.625,-1.378l0.687,-1.344l0.754,-1.303l0.809,-1.262l0.872,-1.222l0.928,-1.178l0.978,-1.135l1.034,-1.081l1.085,-1.034l1.134,-0.982l1.178,-0.928l1.219,-0.869l1.266,-0.812l1.306,-0.75l1.341,-0.691l1.375,-0.625l1.412,-0.556l1.441,-0.491l1.472,-0.418l1.503,-0.347l1.528,-0.275l1.553,-0.2l1.575,-0.119l1.675,-0.044l30.903,-0.062l0,34.175l-0.147,1.294l-0.234,1.45l-0.303,1.428l-0.369,1.406l-0.428,1.375l-0.494,1.347l-0.553,1.322l-0.613,1.293l-0.665,1.257l-0.725,1.222l-0.775,1.187l-0.831,1.15l-0.879,1.109l-0.928,1.072l-0.975,1.025l-1.022,0.982l-1.062,0.934l-1.103,0.884l-1.147,0.838l-1.184,0.787l-1.216,0.728l-1.253,0.679l-1.285,0.618l-1.318,0.563l-1.344,0.5l-1.372,0.437l-1.4,0.378l-1.428,0.313l-1.447,0.244l-1.472,0.178l-1.49,0.106l-1.51,0.038l-1.603,-0.041l-1.575,-0.122l-1.556,-0.2l-1.528,-0.272l-1.5,-0.35l-1.472,-0.419l-1.447,-0.49l-1.409,-0.556l-1.375,-0.625l-1.341,-0.688l-1.306,-0.753l-1.266,-0.809l-1.219,-0.872l-1.181,-0.928l-1.131,-0.982l-1.085,-1.031l-1.031,-1.084l-0.981,-1.132l-0.928,-1.181l-0.869,-1.222l-0.812,-1.262l-0.754,-1.303l-0.687,-1.344l-0.625,-1.375l-0.556,-1.413l-0.491,-1.44l-0.419,-1.475l-0.35,-1.5l-0.275,-1.528l-0.197,-1.553l-0.081,-1.035" style="fill:#fff;"/><path d="M713.478,149.691l1.572,0.993l1.541,1.044l1.5,1.084l1.468,1.129l1.435,1.175l1.4,1.215l1.359,1.253l1.322,1.297l1.281,1.338l1.244,1.372l1.2,1.412l1.156,1.447l1.113,1.481l1.075,1.516l1.025,1.55l0.203,0.331l0.206,-0.331l1.025,-1.547l1.069,-1.519l1.115,-1.484l1.16,-1.447l1.2,-1.409l1.237,-1.372l1.285,-1.338l1.325,-1.297l1.359,-1.253l1.397,-1.215l1.434,-1.175l1.472,-1.129l1.503,-1.084l1.538,-1.041l1.569,-0.996l1.603,-0.95l1.634,-0.9l1.663,-0.854l1.693,-0.803l1.719,-0.75l1.75,-0.697l1.769,-0.646l1.797,-0.594l1.825,-0.538l1.843,-0.481l1.863,-0.425l1.891,-0.369l1.115,-0.178l-0.153,-1.681l-0.294,-2.078l-0.393,-2.044l-0.497,-2.009l-0.585,-1.972l-0.681,-1.931l-0.769,-1.885l-0.859,-1.84l-0.944,-1.791l-1.022,-1.741l-1.106,-1.687l-1.181,-1.631l-1.256,-1.569l-1.325,-1.51l-1.397,-1.443l-1.466,-1.378l-1.525,-1.307l-1.591,-1.234l-1.646,-1.159l-1.703,-1.082l-1.754,-1.003l-1.806,-0.915l-1.853,-0.832l-1.9,-0.743l-1.941,-0.654l-1.984,-0.559l-2.019,-0.462l-2.056,-0.369l-2.084,-0.263l-2.122,-0.159l-2.144,-0.053l-2.15,0.053l-2.119,0.159l-2.087,0.263l-2.053,0.369l-2.022,0.462l-1.981,0.559l-1.941,0.654l-1.897,0.743l-1.856,0.832l-1.803,0.915l-1.757,1.003l-1.7,1.082l-1.65,1.159l-1.587,1.234l-1.525,1.307l-1.463,1.378l-1.4,1.443l-1.328,1.513l-1.253,1.566l-1.181,1.631l-1.106,1.687l-1.025,1.741l-0.941,1.791l-0.859,1.84l-0.769,1.888l-0.681,1.928l-0.588,1.969l-0.49,2.012l-0.397,2.044l-0.294,2.078l-0.153,1.681l1.115,0.178l1.885,0.369l1.869,0.425l1.84,0.481l1.825,0.538l1.797,0.594l1.772,0.646l1.747,0.697l1.719,0.75l1.693,0.803l1.663,0.854l1.631,0.9l1.603,0.95Zm71.56,-123.11l3.109,0.078l3.072,0.235l3.025,0.384l2.984,0.531l2.928,0.672l2.878,0.813l2.819,0.953l2.753,1.081l2.688,1.206l2.618,1.335l2.541,1.453l2.466,1.572l2.384,1.681l2.3,1.791l2.209,1.893l2.116,2l2.019,2.094l1.919,2.188l1.815,2.278l1.71,2.365l1.593,2.447l1.482,2.528l1.359,2.597l1.241,2.675l1.109,2.738l0.981,2.806l0.844,2.859l0.709,2.922l0.566,2.972l0.419,3.019l0.268,3.059l0.022,0.575l0.31,0.041l2.775,0.509l2.728,0.628l2.681,0.753l2.631,0.869l2.575,0.988l2.522,1.093l2.46,1.21l2.393,1.309l2.328,1.413l2.263,1.509l2.187,1.609l2.113,1.7l2.034,1.794l1.953,1.878l1.872,1.963l1.778,2.04l1.694,2.122l1.594,2.197l1.503,2.266l1.4,2.337l1.3,2.407l1.194,2.465l1.084,2.525l0.972,2.581l0.856,2.635l0.741,2.684l0.619,2.738l0.493,2.778l0.366,2.815l0.234,2.857l0.013,0.362l0.325,0.044l2.787,0.512l2.744,0.635l2.697,0.762l2.644,0.878l2.587,0.997l2.532,1.103l2.475,1.219l2.403,1.322l2.34,1.428l2.269,1.528l2.197,1.622l2.119,1.719l2.04,1.809l1.957,1.897l1.875,1.981l1.781,2.063l1.69,2.141l1.597,2.215l1.5,2.291l1.397,2.353l1.294,2.428l1.187,2.488l1.079,2.55l0.959,2.603l0.847,2.656l0.725,2.709l0.603,2.76l0.475,2.797l0.347,2.84l0.212,2.878l0.16,5.838l-18.85,0l-0.157,-5.066l-0.168,-2.128l-0.278,-2.1l-0.379,-2.066l-0.478,-2.031l-0.575,-1.987l-0.668,-1.953l-0.76,-1.904l-0.85,-1.862l-0.937,-1.809l-1.019,-1.763l-1.1,-1.703l-1.181,-1.65l-1.253,-1.588l-1.332,-1.525l-1.397,-1.462l-1.468,-1.394l-1.528,-1.322l-1.597,-1.253l-1.653,-1.172l-1.71,-1.097l-1.762,-1.009l-1.816,-0.931l-1.862,-0.841l-1.913,-0.756l-1.953,-0.659l-1.994,-0.569l-2.031,-0.469l-2.069,-0.369l-2.1,-0.265l-2.134,-0.163l-2.16,-0.056l-2.165,0.056l-2.131,0.163l-2.1,0.265l-2.069,0.369l-2.031,0.469l-1.994,0.569l-1.953,0.659l-1.91,0.756l-1.862,0.841l-1.816,0.931l-1.762,1.009l-1.71,1.097l-1.656,1.172l-1.594,1.253l-1.528,1.322l-1.469,1.394l-1.4,1.462l-1.328,1.525l-1.256,1.588l-1.178,1.65l-1.103,1.706l-1.019,1.76l-0.937,1.809l-0.847,1.862l-0.763,1.907l-0.669,1.95l-0.575,1.987l-0.478,2.031l-0.378,2.066l-0.275,2.097l-0.172,2.131l-0.147,5.066l-18.775,0l-0.153,-5.066l-0.172,-2.131l-0.275,-2.097l-0.378,-2.066l-0.478,-2.031l-0.575,-1.987l-0.669,-1.953l-0.759,-1.904l-0.85,-1.862l-0.937,-1.809l-1.022,-1.763l-1.097,-1.703l-1.181,-1.65l-1.254,-1.588l-1.328,-1.525l-1.397,-1.462l-1.468,-1.394l-1.532,-1.322l-1.596,-1.253l-1.65,-1.172l-1.71,-1.097l-1.765,-1.009l-1.813,-0.931l-1.862,-0.841l-1.913,-0.756l-1.953,-0.659l-1.994,-0.569l-2.031,-0.469l-2.069,-0.369l-2.1,-0.265l-2.131,-0.163l-2.163,-0.056l-2.162,0.056l-2.134,0.163l-2.1,0.265l-2.066,0.369l-2.038,0.469l-1.99,0.569l-1.953,0.659l-1.91,0.756l-1.862,0.841l-1.816,0.931l-1.762,1.009l-1.71,1.097l-1.656,1.172l-1.591,1.253l-1.531,1.322l-1.465,1.394l-1.404,1.462l-1.325,1.526l-1.256,1.587l-1.178,1.65l-1.103,1.706l-1.022,1.76l-0.934,1.809l-0.847,1.863l-0.763,1.906l-0.668,1.95l-0.575,1.987l-0.479,2.032l-0.378,2.065l-0.275,2.097l-0.172,2.131l-0.143,5.066l-18.775,0l-0.157,-5.066l-0.168,-2.131l-0.275,-2.097l-0.382,-2.065l-0.478,-2.032l-0.575,-1.987l-0.668,-1.953l-0.76,-1.903l-0.85,-1.863l-0.937,-1.809l-1.022,-1.763l-1.097,-1.703l-1.181,-1.65l-1.257,-1.587l-1.328,-1.526l-1.397,-1.462l-1.468,-1.394l-1.532,-1.322l-1.593,-1.253l-1.653,-1.172l-1.71,-1.097l-1.765,-1.009l-1.813,-0.931l-1.865,-0.841l-1.91,-0.756l-1.953,-0.659l-1.994,-0.569l-2.028,-0.469l-2.069,-0.369l-2.1,-0.265l-2.134,-0.163l-2.159,-0.056l-2.163,0.056l-2.134,0.163l-2.103,0.265l-2.066,0.369l-2.031,0.469l-1.994,0.569l-1.953,0.659l-1.91,0.756l-1.865,0.841l-1.816,0.931l-1.762,1.009l-1.71,1.097l-1.653,1.172l-1.594,1.253l-1.531,1.322l-1.465,1.394l-1.404,1.462l-1.328,1.526l-1.256,1.587l-1.181,1.65l-1.1,1.706l-1.022,1.76l-0.934,1.809l-0.847,1.863l-0.766,1.906l-0.666,1.95l-0.574,1.987l-0.479,2.032l-0.378,2.065l-0.275,2.097l-0.172,2.131l-0.146,5.066l-18.851,0l0.154,-5.835l0.212,-2.878l0.344,-2.843l0.478,-2.797l0.6,-2.76l0.725,-2.709l0.847,-2.656l0.962,-2.603l1.075,-2.55l1.188,-2.488l1.294,-2.428l1.396,-2.353l1.497,-2.291l1.6,-2.219l1.691,-2.14l1.784,-2.059l1.869,-1.982l1.96,-1.897l2.04,-1.809l2.122,-1.719l2.194,-1.622l2.269,-1.528l2.34,-1.428l2.406,-1.322l2.469,-1.219l2.535,-1.103l2.59,-0.996l2.644,-0.879l2.694,-0.762l2.743,-0.635l2.791,-0.512l0.322,-0.044l0.012,-0.362l0.238,-2.853l0.362,-2.819l0.497,-2.778l0.616,-2.735l0.741,-2.687l0.856,-2.638l0.975,-2.578l1.081,-2.525l1.194,-2.468l1.3,-2.404l1.403,-2.337l1.5,-2.266l1.6,-2.197l1.691,-2.122l1.781,-2.04l1.865,-1.963l1.957,-1.878l2.031,-1.793l2.116,-1.697l2.184,-1.613l2.262,-1.509l2.329,-1.413l2.396,-1.309l2.457,-1.206l2.522,-1.097l2.575,-0.988l2.631,-0.869l2.681,-0.753l2.728,-0.628l2.775,-0.509l0.313,-0.041l0.022,-0.572l0.268,-3.062l0.416,-3.019l0.566,-2.972l0.709,-2.922l0.844,-2.862l0.981,-2.803l1.112,-2.738l1.235,-2.672l1.362,-2.6l1.478,-2.528l1.6,-2.447l1.704,-2.365l1.818,-2.278l1.919,-2.191l2.022,-2.091l2.112,-1.996l2.21,-1.897l2.297,-1.791l2.384,-1.681l2.466,-1.572l2.543,-1.453l2.619,-1.335l2.691,-1.206l2.753,-1.081l2.816,-0.953l2.875,-0.813l2.934,-0.672l2.981,-0.531l3.028,-0.384l3.072,-0.235l3.11,-0.078Zm30.987,32.478l-1.394,-1.443l-1.465,-1.378l-1.529,-1.307l-1.59,-1.237l-1.644,-1.16l-1.703,-1.081l-1.756,-1l-1.803,-0.919l-1.853,-0.828l-1.901,-0.747l-1.943,-0.653l-1.982,-0.559l-2.018,-0.463l-2.053,-0.368l-2.088,-0.263l-2.119,-0.159l-2.147,-0.053l-2.146,0.053l-2.119,0.159l-2.088,0.263l-2.053,0.368l-2.022,0.463l-1.981,0.559l-1.94,0.653l-1.9,0.747l-1.857,0.832l-1.803,0.915l-1.756,1l-1.7,1.081l-1.65,1.16l-1.588,1.234l-1.528,1.31l-1.462,1.378l-1.4,1.443l-1.325,1.51l-1.256,1.569l-1.182,1.631l-1.106,1.687l-1.022,1.741l-0.944,1.79l-0.856,1.844l-0.772,1.885l-0.678,1.931l-0.59,1.969l-0.491,2.009l-0.397,2.044l-0.294,2.081l-0.153,1.681l1.119,0.181l1.887,0.366l1.866,0.425l1.844,0.481l1.825,0.541l1.797,0.591l1.771,0.647l1.747,0.699l1.719,0.75l1.694,0.8l1.662,0.854l1.632,0.9l1.603,0.95l1.569,0.993l1.543,1.044l1.5,1.084l1.469,1.129l1.434,1.175l1.4,1.215l1.357,1.253l1.325,1.3l1.278,1.335l1.244,1.372l1.2,1.409l1.159,1.45l1.112,1.478l1.072,1.519l1.025,1.55l0.203,0.328l0.204,-0.328l1.025,-1.55l1.068,-1.519l1.116,-1.481l1.159,-1.447l1.2,-1.409l1.241,-1.372l1.281,-1.335l1.322,-1.3l1.359,-1.253l1.397,-1.215l1.438,-1.175l1.472,-1.129l1.503,-1.084l1.534,-1.041l1.572,-0.996l1.603,-0.95l1.635,-0.9l1.662,-0.854l1.694,-0.8l1.719,-0.75l1.746,-0.699l1.772,-0.647l1.8,-0.591l1.822,-0.541l1.844,-0.481l1.866,-0.425l1.89,-0.366l1.116,-0.181l-0.153,-1.681l-0.294,-2.081l-0.394,-2.044l-0.494,-2.009l-0.587,-1.972l-0.681,-1.931l-0.769,-1.882l-0.859,-1.844l-0.941,-1.79l-1.025,-1.741l-1.103,-1.687l-1.185,-1.632l-1.256,-1.568l-1.328,-1.51Zm0.778,90.632l1.572,0.993l1.538,1.044l1.503,1.084l1.468,1.129l1.435,1.175l1.4,1.215l1.359,1.253l1.322,1.297l1.281,1.338l1.241,1.372l1.2,1.412l1.159,1.447l1.113,1.481l1.072,1.516l1.025,1.55l0.206,0.331l0.203,-0.331l1.028,-1.55l1.069,-1.516l1.116,-1.484l1.159,-1.447l1.2,-1.409l1.237,-1.372l1.285,-1.338l1.325,-1.297l1.359,-1.253l1.397,-1.215l1.434,-1.175l1.472,-1.129l1.503,-1.084l1.538,-1.041l1.569,-0.996l1.603,-0.95l1.634,-0.9l1.663,-0.854l1.693,-0.803l1.719,-0.75l1.75,-0.696l1.769,-0.647l1.8,-0.594l1.822,-0.538l1.844,-0.481l1.862,-0.425l1.891,-0.369l1.115,-0.178l-0.153,-1.681l-0.297,-2.078l-0.393,-2.044l-0.494,-2.009l-0.588,-1.972l-0.681,-1.928l-0.769,-1.888l-0.856,-1.84l-0.944,-1.791l-1.025,-1.741l-1.103,-1.687l-1.181,-1.631l-1.256,-1.569l-1.328,-1.509l-1.397,-1.444l-1.463,-1.378l-1.528,-1.307l-1.591,-1.234l-1.643,-1.159l-1.703,-1.082l-1.757,-1.003l-1.803,-0.915l-1.853,-0.832l-1.9,-0.743l-1.941,-0.653l-1.984,-0.56l-2.016,-0.462l-2.056,-0.369l-2.087,-0.263l-2.116,-0.159l-2.147,-0.053l-2.15,0.053l-2.119,0.159l-2.087,0.263l-2.053,0.369l-2.025,0.462l-1.978,0.56l-1.944,0.653l-1.897,0.743l-1.856,0.832l-1.803,0.915l-1.757,1.003l-1.703,1.082l-1.647,1.159l-1.587,1.234l-1.528,1.307l-1.463,1.378l-1.4,1.444l-1.325,1.509l-1.256,1.569l-1.181,1.631l-1.106,1.687l-1.022,1.741l-0.944,1.791l-0.856,1.84l-0.772,1.888l-0.682,1.928l-0.584,1.969l-0.494,2.012l-0.393,2.044l-0.294,2.078l-0.153,1.681l1.115,0.178l1.885,0.369l1.865,0.425l1.844,0.481l1.825,0.538l1.797,0.594l1.772,0.647l1.744,0.696l1.721,0.75l1.694,0.803l1.663,0.854l1.631,0.9l1.603,0.95" style="fill:#fff;"/></svg>